<svg width="13" height="14" viewBox="0 0 13 14" fill="none" xmlns="http://www.w3.org/2000/svg">
<path d="M4.05 0.450195V2.91509M8.85001 0.450195V2.91509M12.3 5.55019H0.600018M5.49 13.0502H7.41C9.17419 13.0502 10.0563 13.0502 10.7301 12.7069C11.3228 12.4048 11.8047 11.923 12.1067 11.3302C12.45 10.6564 12.45 9.7744 12.45 8.0102V6.9902C12.45 5.22603 12.45 4.34395 12.1067 3.67013C11.8047 3.07741 11.3228 2.59553 10.7301 2.29352C10.0563 1.95019 9.17419 1.95019 7.41 1.95019H5.49C3.72583 1.95019 2.84375 1.95019 2.16993 2.29352C1.57722 2.59553 1.09533 3.07741 0.793329 3.67013C0.449997 4.34395 0.449997 5.22603 0.449997 6.99019V8.0102C0.449997 9.7744 0.449997 10.6564 0.793329 11.3302C1.09533 11.923 1.57722 12.4048 2.16993 12.7069C2.84375 13.0502 3.72583 13.0502 5.49 13.0502Z" stroke="white" stroke-width="0.9" stroke-linecap="round" stroke-linejoin="round"/>
</svg>
