<svg width="15" height="15" viewBox="0 0 15 15" fill="none" xmlns="http://www.w3.org/2000/svg">
<path d="M4.79995 0.600586V3.06548M9.59997 0.600586V3.06548M13.0499 5.70058H1.34997M6.23995 13.2006H8.15996C9.92415 13.2006 10.8062 13.2006 11.4801 12.8573C12.0727 12.5552 12.5547 12.0734 12.8566 11.4806C13.2 10.8068 13.2 9.92479 13.2 8.16059V7.14059C13.2 5.37642 13.2 4.49434 12.8566 3.82052C12.5547 3.2278 12.0727 2.74592 11.4801 2.44391C10.8062 2.10058 9.92415 2.10058 8.15996 2.10058H6.23995C4.47579 2.10058 3.59371 2.10058 2.91989 2.44391C2.32717 2.74592 1.84529 3.2278 1.54328 3.82052C1.19995 4.49434 1.19995 5.37642 1.19995 7.14058V8.16059C1.19995 9.92479 1.19995 10.8068 1.54328 11.4806C1.84529 12.0734 2.32717 12.5552 2.91989 12.8573C3.59371 13.2006 4.47579 13.2006 6.23995 13.2006Z" stroke="#171717" stroke-width="0.9" stroke-linecap="round" stroke-linejoin="round"/>
</svg>
