<svg width="18" height="18" viewBox="0 0 18 18" fill="none" xmlns="http://www.w3.org/2000/svg">
<path d="M8.28501 6.23H16.515C16.0783 5.05467 15.3813 4.016 14.424 3.114C13.4673 2.21267 12.376 1.608 11.15 1.3L8.28501 6.23ZM6.21501 8.23L10.37 1.1C10.1867 1.06667 9.95867 1.04167 9.68601 1.025C9.41334 1.00833 9.18467 1 9.00001 1C7.90001 1 6.87501 1.20833 5.92501 1.625C4.97501 2.04167 4.13334 2.6 3.40001 3.3L6.21501 8.23ZM1.25001 11H6.93001L2.85501 3.908C2.26967 4.62933 1.81434 5.41533 1.48901 6.266C1.16367 7.11667 1.00067 8.028 1.00001 9C1.00001 9.35 1.02101 9.68767 1.06301 10.013C1.10501 10.3383 1.16734 10.6673 1.25001 11ZM6.88901 16.7L9.74201 11.77H1.48401C1.92134 12.9453 2.62501 13.984 3.59501 14.886C4.56501 15.788 5.66334 16.3927 6.89001 16.7M9.00001 17C10.1 17 11.125 16.7917 12.075 16.375C13.025 15.9583 13.8667 15.4 14.6 14.7L11.785 9.77L7.66901 16.862C7.85234 16.908 8.07001 16.9427 8.32201 16.966C8.57401 16.9893 8.80001 17.0007 9.00001 17ZM15.146 14.092C15.6793 13.4087 16.1217 12.6227 16.473 11.734C16.8243 10.8453 17 9.934 17 9C17 8.65 16.9793 8.31267 16.938 7.988C16.8967 7.66333 16.834 7.334 16.75 7H11.07L15.146 14.092ZM9.00001 18C7.76134 18 6.59467 17.7633 5.50001 17.29C4.40534 16.816 3.45201 16.1727 2.64001 15.36C1.82801 14.5473 1.18467 13.594 0.710006 12.5C0.235339 11.406 -0.00132773 10.2393 5.60224e-06 9C5.60224e-06 7.75733 0.236672 6.58967 0.710006 5.497C1.18401 4.40367 1.82734 3.45133 2.64001 2.64C3.45267 1.82867 4.40601 1.18533 5.50001 0.71C6.59467 0.236667 7.76134 0 9.00001 0C10.2427 0 11.4103 0.236667 12.503 0.71C13.5963 1.184 14.549 1.82733 15.361 2.64C16.173 3.45267 16.816 4.405 17.29 5.497C17.7633 6.59033 18 7.758 18 9C18 10.2387 17.7633 11.4053 17.29 12.5C16.816 13.5947 16.1727 14.548 15.36 15.36C14.5473 16.172 13.595 16.8153 12.503 17.29C11.411 17.7647 10.2433 18.0013 9.00001 18Z" fill="#1E1E1E"/>
<path d="M12.1943 17.4141C11.1914 17.8042 10.1273 18.0012 9.00001 18C7.99778 18 7.0437 17.8421 6.13575 17.5322C7.03568 17.8342 7.99837 18 9.00001 18C10.1252 18 11.2014 17.7912 12.1943 17.4141ZM0.542974 12.0859C0.594912 12.2251 0.650615 12.3631 0.710006 12.5C1.18467 13.594 1.82801 14.5473 2.64001 15.36C3.45201 16.1727 4.40534 16.816 5.50001 17.29C5.70895 17.3804 5.92155 17.4591 6.13575 17.5322C3.54677 16.6635 1.48226 14.6519 0.545904 12.0947L0.542974 12.0859ZM17.5645 11.7695C16.7245 14.3688 14.7347 16.4491 12.1943 17.4141C12.2975 17.3739 12.4011 17.3343 12.503 17.29C13.595 16.8153 14.5473 16.172 15.36 15.36C16.1727 14.548 16.816 13.5947 17.29 12.5C17.3937 12.2602 17.4835 12.0162 17.5645 11.7695ZM14.6 14.7C13.8667 15.4 13.025 15.9583 12.075 16.375C11.125 16.7917 10.1 17 9.00001 17C8.80001 17.0007 8.57401 16.9893 8.32201 16.966C8.07001 16.9427 7.85234 16.908 7.66901 16.862L11.785 9.77L14.6 14.7ZM9.74201 11.77L6.89001 16.7C5.66334 16.3927 4.56501 15.788 3.59501 14.886C2.62501 13.984 1.92134 12.9453 1.48401 11.77H9.74201ZM16.75 7C16.834 7.334 16.8967 7.66333 16.938 7.988C16.9793 8.31267 17 8.65 17 9C17 9.934 16.8243 10.8453 16.473 11.734C16.1217 12.6227 15.6793 13.4087 15.146 14.092L11.07 7H16.75ZM0.545904 5.90527C0.192572 6.87022 5.60224e-06 7.91264 5.60224e-06 9C5.60224e-06 10.0754 0.189221 11.1065 0.535162 12.0625C0.177747 11.0963 -0.00115165 10.0757 5.60224e-06 9C5.60224e-06 7.91076 0.182234 6.87927 0.545904 5.90527ZM17.4541 5.90527C17.8178 6.87977 18 7.91126 18 9C18 9.96737 17.8531 10.89 17.5645 11.7695C17.8464 10.8969 18 9.96646 18 9C18 7.91264 17.8074 6.87022 17.4541 5.90527ZM6.93001 11H1.25001C1.16734 10.6673 1.10501 10.3383 1.06301 10.013C1.02101 9.68767 1.00001 9.35 1.00001 9C1.00067 8.028 1.16367 7.11667 1.48901 6.266C1.81434 5.41533 2.26967 4.62933 2.85501 3.908L6.93001 11ZM9.00001 1C9.18467 1 9.41334 1.00833 9.68601 1.025C9.95867 1.04167 10.1867 1.06667 10.37 1.1L6.21501 8.23L3.40001 3.3C4.13334 2.6 4.97501 2.04167 5.92501 1.625C6.87501 1.20833 7.90001 1 9.00001 1ZM11.15 1.3C12.376 1.608 13.4673 2.21267 14.424 3.114C15.3813 4.016 16.0783 5.05467 16.515 6.23H8.28501L11.15 1.3ZM6.13575 0.466797C5.92145 0.539924 5.70905 0.61961 5.50001 0.71C4.40601 1.18533 3.45267 1.82867 2.64001 2.64C1.82734 3.45133 1.18401 4.40367 0.710006 5.497C0.65158 5.63188 0.597117 5.76811 0.545904 5.90527C1.48229 3.348 3.54664 1.3355 6.13575 0.466797ZM12.1621 0.572266C14.6113 1.49162 16.5539 3.44682 17.4541 5.90527C17.4029 5.76812 17.3484 5.63189 17.29 5.497C16.816 4.405 16.173 3.45267 15.361 2.64C14.549 1.82733 13.5963 1.184 12.503 0.71C12.3903 0.661198 12.2764 0.616036 12.1621 0.572266ZM12.0342 0.524414C11.0862 0.185005 10.0647 0 9.00001 0C10.0668 0 11.0779 0.175577 12.0342 0.524414ZM9.00001 0C7.99848 6.07481e-07 7.03559 0.164879 6.13575 0.466797C7.04361 0.156996 7.99789 2.31917e-06 9.00001 0Z" fill="#D9D9D9"/>
<path d="M11 9C11 10.1046 10.1046 11 9 11C7.89543 11 7 10.1046 7 9C7 7.89543 7.89543 7 9 7C10.1046 7 11 7.89543 11 9Z" fill="white"/>
</svg>
