<svg width="22" height="22" viewBox="0 0 22 22" fill="none" xmlns="http://www.w3.org/2000/svg">
<path d="M19.8 12.8539V6.55345C19.8 6.3961 19.7175 6.25027 19.5825 6.16931C19.4395 6.08355 19.2608 6.08424 19.1186 6.1711L13.0511 9.87542C12.2334 10.3747 11.8245 10.6243 11.3872 10.7218C11.0005 10.8079 10.5995 10.8079 10.2127 10.7218C9.77543 10.6243 9.36656 10.3747 8.54889 9.87542L2.48141 6.1711C2.33914 6.08424 2.16042 6.08355 2.01748 6.16931C1.88255 6.25027 1.79999 6.3961 1.79999 6.55345V12.8539C1.79999 13.7458 1.79999 14.1917 1.92796 14.5925C2.04121 14.9471 2.22655 15.2744 2.47236 15.554C2.75014 15.8699 3.13255 16.0994 3.89737 16.5582L8.57737 19.3662C9.38546 19.8511 9.78956 20.0936 10.2208 20.1883C10.6024 20.272 10.9975 20.272 11.3791 20.1883C11.8104 20.0936 12.2145 19.8511 13.0226 19.3662L17.7026 16.5582C18.4674 16.0994 18.8499 15.8699 19.1276 15.554C19.3734 15.2744 19.5588 14.9471 19.672 14.5925C19.8 14.1917 19.8 13.7458 19.8 12.8539Z" fill="#171717" fill-opacity="0.1"/>
<path d="M6.74988 8.54992L14.85 3.59992M10.8 11.2499L18.9 6.29992M10.8 11.2499L2.69999 6.29992M10.8 11.2499V20.2499M1.79999 8.74586V12.854C1.79999 13.7459 1.79999 14.1918 1.92796 14.5926C2.04121 14.9472 2.22655 15.2745 2.47236 15.5541C2.75014 15.87 3.13255 16.0995 3.89737 16.5584L8.57737 19.3664C9.38546 19.8512 9.78956 20.0937 10.2208 20.1884C10.6024 20.2721 10.9975 20.2721 11.3791 20.1884C11.8104 20.0937 12.2145 19.8512 13.0226 19.3664L17.7026 16.5584C18.4674 16.0995 18.8499 15.87 19.1276 15.5541C19.3734 15.2745 19.5588 14.9472 19.672 14.5926C19.8 14.1918 19.8 13.7459 19.8 12.854V8.74586C19.8 7.85394 19.8 7.40797 19.672 7.00725C19.5588 6.65265 19.3734 6.32528 19.1276 6.04573C18.8499 5.72983 18.4674 5.50038 17.7026 5.04149L13.0226 2.23349C12.2145 1.74863 11.8104 1.50619 11.3791 1.41147C10.9975 1.32769 10.6024 1.32769 10.2208 1.41147C9.78956 1.50619 9.38546 1.74863 8.57737 2.23349L3.89737 5.04149C3.13255 5.50038 2.75014 5.72983 2.47236 6.04573C2.22655 6.32528 2.04121 6.65265 1.92796 7.00725C1.79999 7.40797 1.79999 7.85394 1.79999 8.74586Z" stroke="#171717" stroke-width="1.35" stroke-linecap="round" stroke-linejoin="round"/>
</svg>
