<svg width="22" height="22" viewBox="0 0 22 22" fill="none" xmlns="http://www.w3.org/2000/svg">
<path d="M10.8 2.68239C13.446 2.68239 13.752 2.69139 14.796 2.73639C15.426 2.73639 16.047 2.86239 16.632 3.07839C17.064 3.24039 17.451 3.49239 17.775 3.81639C18.108 4.13139 18.36 4.52739 18.513 4.95939C18.729 5.54439 18.846 6.16539 18.855 6.79539C18.9 7.83939 18.909 8.15439 18.909 10.8004C18.909 13.4464 18.9 13.7524 18.855 14.7964C18.855 15.4264 18.729 16.0474 18.513 16.6324C18.351 17.0554 18.099 17.4514 17.775 17.7754C17.451 18.0994 17.064 18.3514 16.632 18.5134C16.047 18.7294 15.426 18.8464 14.796 18.8554C13.752 18.9004 13.437 18.9094 10.8 18.9094C8.16302 18.9094 7.84802 18.9004 6.79502 18.8554C6.16502 18.8554 5.54402 18.7294 4.95902 18.5134C4.52702 18.3514 4.14002 18.0994 3.81602 17.7754C3.48302 17.4604 3.23102 17.0644 3.07802 16.6324C2.86202 16.0474 2.74502 15.4264 2.73602 14.7964C2.69102 13.7524 2.68202 13.4374 2.68202 10.8004C2.68202 8.16339 2.69102 7.84839 2.73602 6.79539C2.73602 6.16539 2.86202 5.54439 3.07802 4.95939C3.24002 4.52739 3.49202 4.14039 3.81602 3.81639C4.13102 3.48339 4.52702 3.23139 4.95902 3.07839C5.54402 2.86239 6.16502 2.74539 6.79502 2.73639C7.83902 2.69139 8.15402 2.68239 10.8 2.68239ZM10.8 0.900391C8.10902 0.900391 7.77602 0.909391 6.72302 0.963391C5.90402 0.981391 5.08502 1.13439 4.32002 1.42239C3.66302 1.67439 3.06002 2.07039 2.56502 2.56539C2.07002 3.06939 1.67402 3.66339 1.42202 4.32039C1.13402 5.08539 0.981024 5.90439 0.963024 6.72339C0.918024 7.77639 0.900024 8.10939 0.900024 10.8004C0.900024 13.4914 0.909024 13.8244 0.963024 14.8774C0.981024 15.6964 1.13402 16.5154 1.42202 17.2804C1.67402 17.9374 2.07002 18.5404 2.56502 19.0354C3.06902 19.5304 3.66302 19.9264 4.32002 20.1784C5.08502 20.4664 5.90402 20.6194 6.72302 20.6374C7.77602 20.6824 8.10902 20.7004 10.8 20.7004C13.491 20.7004 13.824 20.6914 14.877 20.6374C15.696 20.6194 16.515 20.4664 17.28 20.1784C17.937 19.9264 18.54 19.5304 19.035 19.0354C19.53 18.5314 19.926 17.9374 20.178 17.2804C20.466 16.5154 20.619 15.6964 20.637 14.8774C20.682 13.8244 20.7 13.4914 20.7 10.8004C20.7 8.10939 20.691 7.77639 20.637 6.72339C20.619 5.90439 20.466 5.08539 20.178 4.32039C19.926 3.66339 19.53 3.06039 19.035 2.56539C18.531 2.07039 17.937 1.67439 17.28 1.42239C16.515 1.13439 15.696 0.981391 14.877 0.963391C13.824 0.918391 13.491 0.900391 10.8 0.900391ZM10.8 5.71539C9.79202 5.71539 8.81102 6.01239 7.97402 6.57039C7.13702 7.12839 6.48902 7.92039 6.10202 8.85639C5.71502 9.78339 5.61602 10.8094 5.81402 11.7904C6.01202 12.7804 6.49802 13.6804 7.20902 14.3914C7.92002 15.1024 8.82902 15.5884 9.81002 15.7864C10.8 15.9844 11.817 15.8854 12.744 15.4984C13.671 15.1114 14.463 14.4634 15.03 13.6264C15.588 12.7894 15.885 11.8084 15.885 10.8004C15.885 9.45039 15.345 8.15439 14.4 7.20939C13.446 6.25539 12.15 5.72439 10.809 5.72439L10.8 5.71539ZM10.8 14.1034C10.143 14.1034 9.51302 13.9054 8.96402 13.5454C8.42402 13.1854 8.00102 12.6634 7.74902 12.0604C7.49702 11.4574 7.43402 10.7914 7.56002 10.1524C7.68602 9.51339 8.00102 8.92839 8.46002 8.46039C8.91902 7.99239 9.51302 7.68639 10.152 7.56039C10.791 7.43439 11.457 7.49739 12.06 7.74939C12.663 8.00139 13.176 8.42439 13.545 8.96439C13.905 9.50439 14.103 10.1434 14.103 10.8004C14.103 11.6734 13.752 12.5194 13.14 13.1314C12.519 13.7524 11.682 14.0944 10.809 14.0944L10.8 14.1034ZM16.083 6.70539C16.74 6.70539 17.271 6.17439 17.271 5.51739C17.271 4.86039 16.74 4.32939 16.083 4.32939C15.426 4.32939 14.895 4.86039 14.895 5.51739C14.895 6.17439 15.426 6.70539 16.083 6.70539Z" fill="white"/>
</svg>
