<svg width="13" height="13" viewBox="0 0 13 13" fill="none" xmlns="http://www.w3.org/2000/svg">
<path d="M4.05001 5.2502H8.85003M4.05001 7.6502H6.45002M12.45 6.4502C12.45 9.76393 9.76371 12.4502 6.45002 12.4502C5.76639 12.4502 5.18014 12.3529 4.63578 12.1581C4.12129 11.9741 3.86404 11.8821 3.76532 11.8589C2.85458 11.6447 2.47676 12.2688 1.69181 12.3997C1.30626 12.4638 0.963219 12.1482 0.995214 11.7587C1.02319 11.418 1.25874 11.0959 1.35274 10.7689C1.54815 10.0888 1.28299 9.57331 1.00286 8.9686C0.648102 8.20278 0.450012 7.34959 0.450012 6.4502C0.450012 3.13649 3.13631 0.450195 6.45002 0.450195C9.76371 0.450195 12.45 3.13649 12.45 6.4502Z" stroke="white" stroke-width="0.9" stroke-linecap="round" stroke-linejoin="round"/>
</svg>
