<svg width="36" height="22" viewBox="0 0 36 22" fill="none" xmlns="http://www.w3.org/2000/svg">
<path opacity="0.07" d="M32.4 0H3.60002C2.07002 0 0.900024 1.17 0.900024 2.7V18.9C0.900024 20.43 2.16002 21.6 3.60002 21.6H32.4C33.93 21.6 35.1 20.43 35.1 18.9V2.7C35.1 1.17 33.84 0 32.4 0Z" fill="black"/>
<path d="M32.4 0.900391C33.39 0.900391 34.2 1.71039 34.2 2.70039V18.9004C34.2 19.8904 33.39 20.7004 32.4 20.7004H3.60005C2.61005 20.7004 1.80005 19.8904 1.80005 18.9004V2.70039C1.80005 1.71039 2.61005 0.900391 3.60005 0.900391H32.4Z" fill="white"/>
<path d="M26.37 9.0902H26.1C25.74 9.9902 25.47 10.4402 25.2 11.7902H26.91C26.64 10.4402 26.64 9.8102 26.37 9.0902ZM28.98 14.4002H27.45C27.36 14.4002 27.36 14.4002 27.27 14.3102L27.09 13.5002L27 13.3202H24.84C24.75 13.3202 24.66 13.3202 24.66 13.5002L24.39 14.3102C24.39 14.4002 24.3 14.4002 24.3 14.4002H22.41L22.59 13.9502L25.2 7.8302C25.2 7.3802 25.47 7.2002 25.92 7.2002H27.27C27.36 7.2002 27.45 7.2002 27.45 7.3802L28.71 13.2302C28.8 13.5902 28.89 13.8602 28.89 14.2202C28.98 14.3102 28.98 14.3102 28.98 14.4002ZM16.92 14.1302L17.28 12.5102C17.37 12.5102 17.46 12.6002 17.46 12.6002C18.09 12.8702 18.72 13.0502 19.35 12.9602C19.53 12.9602 19.8 12.8702 19.98 12.7802C20.43 12.6002 20.43 12.1502 20.07 11.7902C19.89 11.6102 19.62 11.5202 19.35 11.3402C18.99 11.1602 18.63 10.9802 18.36 10.7102C17.28 9.81019 17.64 8.5502 18.27 7.9202C18.81 7.5602 19.08 7.2002 19.8 7.2002C20.88 7.2002 22.05 7.2002 22.59 7.3802H22.68C22.59 7.9202 22.5 8.37019 22.32 8.91019C21.87 8.73019 21.42 8.5502 20.97 8.5502C20.7 8.5502 20.43 8.5502 20.16 8.6402C19.98 8.6402 19.89 8.7302 19.8 8.8202C19.62 9.0002 19.62 9.2702 19.8 9.4502L20.25 9.81019C20.61 9.99019 20.97 10.1702 21.24 10.3502C21.69 10.6202 22.14 11.0702 22.23 11.6102C22.41 12.4202 22.14 13.1402 21.42 13.6802C20.97 14.0402 20.79 14.2202 20.16 14.2202C18.9 14.2202 17.91 14.3102 17.1 14.0402C17.01 14.2202 17.01 14.2202 16.92 14.1302ZM13.77 14.4002C13.86 13.7702 13.86 13.7702 13.95 13.5002C14.4 11.5202 14.85 9.4502 15.21 7.4702C15.3 7.2902 15.3 7.2002 15.48 7.2002H17.1C16.92 8.2802 16.74 9.0902 16.47 10.0802C16.2 11.4302 15.93 12.7802 15.57 14.1302C15.57 14.3102 15.48 14.3102 15.3 14.3102M5.40002 7.3802C5.40002 7.2902 5.58002 7.2002 5.67002 7.2002H8.73002C9.18002 7.2002 9.54002 7.4702 9.63002 7.9202L10.44 11.8802C10.44 11.9702 10.44 11.9702 10.53 12.0602C10.53 11.9702 10.62 11.9702 10.62 11.9702L12.51 7.3802C12.42 7.2902 12.51 7.2002 12.6 7.2002H14.49C14.49 7.2902 14.49 7.2902 14.4 7.3802L11.61 13.9502C11.52 14.1302 11.52 14.2202 11.43 14.3102C11.34 14.4002 11.16 14.3102 10.98 14.3102H9.63002C9.54002 14.3102 9.45002 14.3102 9.45002 14.1302L8.01002 8.5502C7.83002 8.3702 7.56002 8.10019 7.20002 8.01019C6.66002 7.74019 5.67002 7.56019 5.49002 7.56019L5.40002 7.3802Z" fill="#142688"/>
</svg>
