<svg width="36" height="22" viewBox="0 0 36 22" fill="none" xmlns="http://www.w3.org/2000/svg">
<path opacity="0.07" d="M32.4 0H3.60002C2.07002 0 0.900024 1.17 0.900024 2.7V18.9C0.900024 20.43 2.16002 21.6 3.60002 21.6H32.4C33.93 21.6 35.1 20.43 35.1 18.9V2.7C35.1 1.17 33.84 0 32.4 0Z" fill="black"/>
<path d="M32.4 0.900391C33.39 0.900391 34.2 1.71039 34.2 2.70039V18.9004C34.2 19.8904 33.39 20.7004 32.4 20.7004H3.60005C2.61005 20.7004 1.80005 19.8904 1.80005 18.9004V2.70039C1.80005 1.71039 2.61005 0.900391 3.60005 0.900391H32.4Z" fill="white"/>
<path d="M14.4 17.1C17.8794 17.1 20.7 14.2794 20.7 10.8C20.7 7.32061 17.8794 4.5 14.4 4.5C10.9206 4.5 8.09998 7.32061 8.09998 10.8C8.09998 14.2794 10.9206 17.1 14.4 17.1Z" fill="#EB001B"/>
<path d="M21.6 17.1C25.0794 17.1 27.9 14.2794 27.9 10.8C27.9 7.32061 25.0794 4.5 21.6 4.5C18.1207 4.5 15.3 7.32061 15.3 10.8C15.3 14.2794 18.1207 17.1 21.6 17.1Z" fill="#F79E1B"/>
<path d="M20.7 10.7999C20.7 8.63992 19.62 6.74992 18 5.66992C16.38 6.83992 15.3 8.72992 15.3 10.7999C15.3 12.8699 16.38 14.8499 18 15.9299C19.62 14.8499 20.7 12.9599 20.7 10.7999Z" fill="#FF5F00"/>
</svg>
