<svg width="36" height="22" viewBox="0 0 36 22" fill="none" xmlns="http://www.w3.org/2000/svg">
<path opacity="0.07" d="M32.4 0H3.60002C2.07002 0 0.900024 1.17 0.900024 2.7V18.9C0.900024 20.43 2.16002 21.6 3.60002 21.6H32.4C33.93 21.6 35.1 20.43 35.1 18.9V2.7C35.1 1.17 33.84 0 32.4 0Z" fill="black"/>
<path d="M32.4 0.900391C33.39 0.900391 34.2 1.71039 34.2 2.70039V18.9004C34.2 19.8904 33.39 20.7004 32.4 20.7004H3.60005C2.61005 20.7004 1.80005 19.8904 1.80005 18.9004V2.70039C1.80005 1.71039 2.61005 0.900391 3.60005 0.900391H32.4Z" fill="#006FCF"/>
<path d="M20.7108 17.9422V10.3633L34.2 10.375V12.4684L32.6412 14.1352L34.2 15.8155V17.953H31.7106L30.3876 16.4932L29.0736 17.9584L20.7108 17.9404V17.9422Z" fill="white"/>
<path d="M21.6117 17.1112V11.1982H26.6265V12.5599H23.2353V13.4851H26.5455V14.8243H23.2353V15.7333H26.6265V17.1112H21.6117Z" fill="#006FCF"/>
<path d="M26.6013 17.1112L29.376 14.1511L26.6013 11.1973H28.7487L30.4443 13.072L32.1453 11.1982H34.2V11.2441L31.4847 14.1511L34.2 17.0284V17.1121H32.1237L30.3984 15.2194L28.6902 17.113H26.6013V17.1112Z" fill="#006FCF"/>
<path d="M21.339 3.63574H24.5916L25.7337 6.22864V3.63574H29.7477L30.4407 5.57884L31.1346 3.63574H34.2V11.2146H18L21.339 3.63574Z" fill="white"/>
<path d="M21.9555 4.45996L19.3311 10.3694H21.1311L21.6261 9.18586H24.3081L24.8031 10.3694H26.6481L24.0345 4.45996H21.9555ZM22.1805 7.85926L22.968 5.97826L23.7537 7.85926H22.1805Z" fill="#006FCF"/>
<path d="M26.6229 10.3683V4.45801L29.1528 4.46701L30.456 8.10031L31.7664 4.45891H34.2V10.3674L32.634 10.3818V6.32281L31.1544 10.3674H29.7234L28.215 6.30931V10.3683H26.6238H26.6229Z" fill="#006FCF"/>
</svg>
