<svg width="36" height="22" viewBox="0 0 36 22" fill="none" xmlns="http://www.w3.org/2000/svg">
<path opacity="0.07" d="M32.4 0H3.60002C2.07002 0 0.900024 1.17 0.900024 2.7V18.9C0.900024 20.43 2.16002 21.6 3.60002 21.6H32.4C33.93 21.6 35.1 20.43 35.1 18.9V2.7C35.1 1.17 33.84 0 32.4 0Z" fill="black"/>
<path d="M32.4 0.900391C33.39 0.900391 34.2 1.71039 34.2 2.70039V18.9004C34.2 19.8904 33.39 20.7004 32.4 20.7004H3.60005C2.61005 20.7004 1.80005 19.8904 1.80005 18.9004V2.70039C1.80005 1.71039 2.61005 0.900391 3.60005 0.900391H32.4Z" fill="white"/>
<path d="M22.41 7.47C22.59 6.57 22.41 5.94 21.87 5.4C21.33 4.77 20.34 4.5 19.08 4.5H15.39C15.12 4.5 14.94 4.68 14.85 4.95L13.5 14.04C13.5 14.22 13.59 14.4 13.77 14.4H16.2L16.56 11.34L18.18 9.36L22.41 7.47Z" fill="#003087"/>
<path d="M22.41 7.46973L22.23 7.64973C21.78 10.1697 20.25 11.0697 18.09 11.0697H17.1C16.83 11.0697 16.65 11.2497 16.56 11.5197L16.02 15.0297L15.84 15.9297C15.84 16.1097 15.93 16.2897 16.11 16.2897H18C18.27 16.2897 18.45 16.1097 18.45 15.9297V15.8397L18.81 13.6797V13.5897C18.81 13.4097 19.08 13.2297 19.26 13.2297H19.53C21.42 13.2297 22.86 12.5097 23.22 10.3497C23.4 9.44973 23.31 8.72973 22.86 8.18973C22.77 7.73973 22.59 7.55973 22.41 7.46973Z" fill="#3086C8"/>
<path d="M21.8701 7.28953C21.7801 7.19953 21.6901 7.19953 21.6001 7.19953C21.5101 7.19953 21.4201 7.19953 21.3301 7.10953C21.0601 7.01953 20.7001 7.01953 20.3401 7.01953H17.6401C17.5501 7.01953 17.4601 7.01953 17.4601 7.10953C17.2801 7.19953 17.1901 7.28953 17.1901 7.46953L16.5601 11.4295V11.5195C16.5601 11.2495 16.8301 11.0695 17.1001 11.0695H18.2701C20.5201 11.0695 21.9601 10.1695 22.4101 7.64953V7.46953C22.3201 7.37953 22.1401 7.28953 21.9601 7.28953H21.8701Z" fill="#012169"/>
</svg>
