<svg width="36" height="22" viewBox="0 0 36 22" fill="none" xmlns="http://www.w3.org/2000/svg">
<path opacity="0.07" d="M32.4 0H3.60002C2.07002 0 0.900024 1.17 0.900024 2.7V18.9C0.900024 20.43 2.16002 21.6 3.60002 21.6H32.4C33.93 21.6 35.1 20.43 35.1 18.9V2.7C35.1 1.17 33.84 0 32.4 0Z" fill="black"/>
<path d="M32.4 0.900391C33.39 0.900391 34.2 1.71039 34.2 2.70039V18.9004C34.2 19.8904 33.39 20.7004 32.4 20.7004H3.60005C2.61005 20.7004 1.80005 19.8904 1.80005 18.9004V2.70039C1.80005 1.71039 2.61005 0.900391 3.60005 0.900391H32.4Z" fill="white"/>
<path d="M11.7 10.8V14.13C11.7 14.4 11.52 14.4 11.25 14.31C9.53998 13.59 8.54998 11.34 9.17998 9.45C9.53998 8.46 10.26 7.65 11.25 7.29C11.61 7.11 11.7 7.2 11.7 7.47V10.8ZM13.5 10.8V7.47C13.5 7.2 13.5 7.2 13.77 7.29C15.66 8.01 16.65 10.26 15.93 12.15C15.57 13.14 14.85 13.95 13.86 14.31C13.5 14.49 13.5 14.4 13.5 14.13V10.8ZM19.98 4.5H12.6C16.02 4.5 18.72 7.29 18.72 10.8C18.72 14.31 16.02 17.1 12.6 17.1H19.98C23.4 17.1 26.1 14.31 26.1 10.8C26.1 7.29 23.4 4.5 19.98 4.5Z" fill="#3086C8"/>
</svg>
