<svg width="36" height="22" viewBox="0 0 36 22" fill="none" xmlns="http://www.w3.org/2000/svg">
<path opacity="0.07" d="M32.4 0H3.60002C2.07002 0 0.900024 1.17 0.900024 2.7V18.9C0.900024 20.43 2.16002 21.6 3.60002 21.6H32.4C33.93 21.6 35.1 20.43 35.1 18.9V2.7C35.1 1.17 33.84 0 32.4 0Z" fill="black"/>
<path d="M32.4 0.900391C33.39 0.900391 34.2 1.71039 34.2 2.70039V18.9004C34.2 19.8904 33.39 20.7004 32.4 20.7004H3.60005C2.61005 20.7004 1.80005 19.8904 1.80005 18.9004V2.70039C1.80005 1.71039 2.61005 0.900391 3.60005 0.900391H32.4Z" fill="white"/>
<path d="M4.11295 6.44394H2.69995V11.3939H4.11295C4.85995 11.3939 5.39995 11.2139 5.87695 10.8269C6.44395 10.3589 6.77695 9.65694 6.77695 8.92794C6.76795 7.46094 5.67895 6.44394 4.11295 6.44394ZM5.24695 10.1699C4.94095 10.4399 4.55395 10.5659 3.92395 10.5659H3.66295V7.28994H3.92395C4.54495 7.28994 4.92295 7.39794 5.24695 7.68594C5.57995 7.98294 5.77795 8.44194 5.77795 8.91894C5.77795 9.39594 5.57995 9.87294 5.24695 10.1699ZM7.21795 6.44394H8.18095V11.3939H7.21795V6.44394ZM10.539 8.34294C9.96295 8.12694 9.79195 7.98294 9.79195 7.72194C9.79195 7.40694 10.098 7.17294 10.512 7.17294C10.8 7.17294 11.043 7.28994 11.286 7.57794L11.79 6.92094C11.376 6.56094 10.881 6.37194 10.332 6.37194C9.45895 6.37194 8.78395 6.98394 8.78395 7.79394C8.78395 8.47794 9.09895 8.82894 9.99895 9.15294C10.377 9.28794 10.566 9.37794 10.665 9.43194C10.854 9.55794 10.953 9.73794 10.953 9.94494C10.953 10.3499 10.638 10.6469 10.206 10.6469C9.74695 10.6469 9.37795 10.4129 9.15295 9.98994L8.53195 10.5929C8.97295 11.2499 9.51295 11.5379 10.242 11.5379C11.241 11.5379 11.952 10.8719 11.952 9.90894C11.97 9.10794 11.637 8.74794 10.539 8.34294ZM12.267 8.92794C12.267 10.3859 13.41 11.5109 14.877 11.5109C15.291 11.5109 15.651 11.4299 16.083 11.2229V10.0889C15.696 10.4759 15.354 10.6289 14.922 10.6289C13.95 10.6289 13.257 9.92694 13.257 8.91894C13.257 7.96494 13.968 7.21794 14.877 7.21794C15.336 7.21794 15.687 7.37994 16.083 7.77594V6.64194C15.66 6.42594 15.309 6.33594 14.895 6.33594C13.446 6.33594 12.267 7.48794 12.267 8.92794ZM23.7509 9.77394L22.4279 6.44394H21.375L23.472 11.5199H23.9939L26.127 6.44394H25.083L23.7509 9.77394ZM26.568 11.3939H29.3039V10.5569H27.531V9.22494H29.2409V8.38794H27.531V7.28994H29.3039V6.44394H26.568V11.3939ZM33.129 7.91094C33.129 6.98394 32.49 6.45294 31.374 6.45294H29.943V11.4029H30.906V9.41394H31.0319L32.3639 11.4029H33.5519L31.9949 9.31494C32.7239 9.16194 33.129 8.66694 33.129 7.91094ZM31.185 8.72994H30.906V7.22694H31.2029C31.8059 7.22694 32.13 7.47894 32.13 7.96494C32.13 8.45994 31.806 8.72994 31.185 8.72994Z" fill="#231F20"/>
<path d="M19.044 11.5737C19.7436 11.5737 20.4146 11.2957 20.9093 10.801C21.404 10.3063 21.6819 9.63537 21.6819 8.93575C21.6819 8.23614 21.404 7.56518 20.9093 7.07047C20.4146 6.57577 19.7436 6.29785 19.044 6.29785C18.3444 6.29785 17.6735 6.57577 17.1788 7.07047C16.684 7.56518 16.4061 8.23614 16.4061 8.93575C16.4061 9.63537 16.684 10.3063 17.1788 10.801C17.6735 11.2957 18.3444 11.5737 19.044 11.5737Z" fill="url(#paint0_linear_967_3460)"/>
<path opacity="0.65" d="M19.044 11.5737C19.7436 11.5737 20.4146 11.2957 20.9093 10.801C21.404 10.3063 21.6819 9.63537 21.6819 8.93575C21.6819 8.23614 21.404 7.56518 20.9093 7.07047C20.4146 6.57577 19.7436 6.29785 19.044 6.29785C18.3444 6.29785 17.6735 6.57577 17.1788 7.07047C16.684 7.56518 16.4061 8.23614 16.4061 8.93575C16.4061 9.63537 16.684 10.3063 17.1788 10.801C17.6735 11.2957 18.3444 11.5737 19.044 11.5737Z" fill="url(#paint1_linear_967_3460)"/>
<path d="M33.813 6.75512C33.813 6.66512 33.75 6.62012 33.651 6.62012H33.507V7.05212H33.615V6.88112L33.741 7.05212H33.867L33.723 6.87212C33.777 6.86312 33.813 6.81812 33.813 6.75512ZM33.633 6.81812H33.615V6.70112H33.633C33.687 6.70112 33.714 6.71912 33.714 6.75512C33.714 6.80012 33.687 6.81812 33.633 6.81812Z" fill="#231F20"/>
<path d="M33.669 6.45801C33.462 6.45801 33.291 6.62901 33.291 6.83601C33.291 7.04301 33.462 7.21401 33.669 7.21401C33.876 7.21401 34.047 7.04301 34.047 6.83601C34.047 6.62901 33.876 6.45801 33.669 6.45801ZM33.669 7.15101C33.507 7.15101 33.363 7.01601 33.363 6.83601C33.363 6.66501 33.498 6.52101 33.669 6.52101C33.831 6.52101 33.966 6.66501 33.966 6.83601C33.966 7.00701 33.831 7.15101 33.669 7.15101Z" fill="#231F20"/>
<path d="M34.2 11.6855C34.2 11.6855 25.281 17.8856 8.97839 20.6999H32.3991C32.874 20.7 33.3297 20.5123 33.6668 20.1778C34.004 19.8434 34.1953 19.3892 34.1991 18.9143L34.2207 16.1963L34.2 11.6855Z" fill="#F48120"/>
<defs>
<linearGradient id="paint0_linear_967_3460" x1="20.3913" y1="11.0472" x2="18.5688" y2="8.19325" gradientUnits="userSpaceOnUse">
<stop stop-color="#F89F20"/>
<stop offset="0.25" stop-color="#F79A20"/>
<stop offset="0.533" stop-color="#F68D20"/>
<stop offset="0.62" stop-color="#F58720"/>
<stop offset="0.723" stop-color="#F48120"/>
<stop offset="1" stop-color="#F37521"/>
</linearGradient>
<linearGradient id="paint1_linear_967_3460" x1="20.1042" y1="11.0085" x2="17.4402" y2="5.80105" gradientUnits="userSpaceOnUse">
<stop stop-color="#F58720"/>
<stop offset="0.359" stop-color="#E16F27"/>
<stop offset="0.703" stop-color="#D4602C"/>
<stop offset="0.982" stop-color="#D05B2E"/>
</linearGradient>
</defs>
</svg>
