<svg width="22" height="22" viewBox="0 0 22 22" fill="none" xmlns="http://www.w3.org/2000/svg">
<path d="M0.900024 16.9196C0.900024 14.5337 2.83415 12.5996 5.22002 12.5996H9.18002C11.5659 12.5996 13.5 14.5337 13.5 16.9196C13.5 18.5102 12.2106 19.7996 10.62 19.7996H3.78002C2.18945 19.7996 0.900024 18.5102 0.900024 16.9196Z" fill="#171717" fill-opacity="0.1"/>
<path d="M10.8 5.3998C10.8 7.38803 9.18817 8.9998 7.19998 8.9998C5.21175 8.9998 3.59998 7.38803 3.59998 5.3998C3.59998 3.41158 5.21175 1.7998 7.19998 1.7998C9.18817 1.7998 10.8 3.41158 10.8 5.3998Z" fill="#171717" fill-opacity="0.1"/>
<path d="M13.5 8.9998C15.4882 8.9998 17.1 7.38803 17.1 5.3998C17.1 3.41158 15.4882 1.7998 13.5 1.7998M15.3 19.7998H17.82C19.4106 19.7998 20.7 18.5104 20.7 16.9198C20.7 14.5339 18.7659 12.5998 16.38 12.5998H15.3M10.8 5.3998C10.8 7.38803 9.18821 8.9998 7.20002 8.9998C5.2118 8.9998 3.60002 7.38803 3.60002 5.3998C3.60002 3.41158 5.2118 1.7998 7.20002 1.7998C9.18821 1.7998 10.8 3.41158 10.8 5.3998ZM3.78002 19.7998H10.62C12.2106 19.7998 13.5 18.5104 13.5 16.9198C13.5 14.5339 11.5659 12.5998 9.18002 12.5998H5.22002C2.83415 12.5998 0.900024 14.5339 0.900024 16.9198C0.900024 18.5104 2.18945 19.7998 3.78002 19.7998Z" stroke="#171717" stroke-width="1.35" stroke-linecap="round" stroke-linejoin="round"/>
</svg>
