<svg width="22" height="22" viewBox="0 0 22 22" fill="none" xmlns="http://www.w3.org/2000/svg">
<path d="M2.69995 7.30715C2.69995 6.29096 2.69995 5.78285 2.85976 5.33926C3.00101 4.94716 3.23112 4.59307 3.53206 4.30475C3.87253 3.97855 4.33683 3.7722 5.26545 3.35948L8.46061 1.93942C9.32206 1.55655 9.7528 1.36512 10.2006 1.28951C10.5974 1.22251 11.0025 1.22251 11.3994 1.28951C11.8471 1.36512 12.2778 1.55655 13.1393 1.93942L16.3345 3.35948C17.263 3.7722 17.7273 3.97855 18.0678 4.30475C18.3688 4.59307 18.5989 4.94716 18.7401 5.33926C18.8999 5.78285 18.9 6.29096 18.9 7.30715V12.217C18.9 13.3441 18.9 13.9076 18.7446 14.4192C18.6071 14.8719 18.3816 15.2932 18.0811 15.6589C17.7417 16.0719 17.2728 16.3845 16.335 17.0096L13.1963 19.1021C12.3302 19.6796 11.8972 19.9682 11.4291 20.0803C11.0155 20.1795 10.5844 20.1795 10.1708 20.0803C9.70267 19.9682 9.26968 19.6796 8.40365 19.1021L5.26488 17.0096C4.32711 16.3845 3.85822 16.0719 3.51879 15.6589C3.21828 15.2932 2.99282 14.8719 2.85529 14.4192C2.69995 13.9076 2.69995 13.3441 2.69995 12.217V7.30715Z" fill="#171717" fill-opacity="0.1"/>
<path d="M8.09995 10.7997L9.89995 12.5997L13.95 8.54971M8.46061 1.93942L5.26545 3.35948C4.33683 3.7722 3.87253 3.97855 3.53206 4.30475C3.23112 4.59307 3.00101 4.94716 2.85976 5.33926C2.69995 5.78285 2.69995 6.29096 2.69995 7.30715V12.217C2.69995 13.3441 2.69995 13.9076 2.85529 14.4192C2.99282 14.8719 3.21828 15.2932 3.51879 15.6589C3.85822 16.0719 4.32711 16.3845 5.26488 17.0096L8.40365 19.1021C9.26968 19.6796 9.70267 19.9682 10.1708 20.0803C10.5844 20.1795 11.0155 20.1795 11.4291 20.0803C11.8972 19.9682 12.3302 19.6796 13.1963 19.1021L16.335 17.0096C17.2728 16.3845 17.7417 16.0719 18.0811 15.6589C18.3816 15.2932 18.6071 14.8719 18.7446 14.4192C18.8999 13.9076 18.8999 13.3441 18.8999 12.217V7.30715C18.8999 6.29096 18.8999 5.78285 18.7401 5.33926C18.5989 4.94716 18.3688 4.59307 18.0678 4.30475C17.7273 3.97855 17.263 3.7722 16.3345 3.35948L13.1393 1.93942C12.2778 1.55655 11.8471 1.36512 11.3994 1.28951C11.0025 1.22251 10.5974 1.22251 10.2006 1.28951C9.7528 1.36512 9.32206 1.55655 8.46061 1.93942Z" stroke="#171717" stroke-width="1.35" stroke-linecap="round" stroke-linejoin="round"/>
</svg>
