<svg width="22" height="22" viewBox="0 0 22 22" fill="none" xmlns="http://www.w3.org/2000/svg">
<path d="M15.525 6.30001C15.525 3.69047 13.4095 1.57501 10.8 1.57501C8.19041 1.57501 6.07495 3.69047 6.07495 6.30001C6.07495 8.90956 8.19041 11.025 10.8 11.025C13.4095 11.025 15.525 8.90956 15.525 6.30001Z" stroke="white" stroke-width="1.35"/>
<path d="M19.8 19.8C19.8 18 19.8 17.55 18.9 16.2C18.18 15.12 15.3 14.5503 14.85 14.4C14.4 14.2497 12.15 13.95 10.8 13.95C9.45005 13.95 7.20005 14.2497 6.75005 14.4C6.30005 14.5503 3.42005 15.12 2.70005 16.2C1.80005 17.55 1.80005 18 1.80005 19.8" stroke="white" stroke-width="1.35" stroke-linecap="round"/>
</svg>
