<svg width="22" height="22" viewBox="0 0 22 22" fill="none" xmlns="http://www.w3.org/2000/svg">
<path d="M21.42 6.83961C21.42 6.83961 21.24 5.30961 20.52 4.67961C19.71 3.77961 18.81 3.77961 18.36 3.77961C15.3 3.59961 10.8 3.59961 10.8 3.59961C10.8 3.59961 6.3 3.59961 3.24 3.77961C2.79 3.86961 1.89 3.86961 1.08 4.67961C0.45 5.30961 0.18 6.83961 0.18 6.83961C0.18 6.83961 0 8.54961 0 10.3496V11.9696C0 13.6796 0.18 15.4796 0.18 15.4796C0.18 15.4796 0.36 17.0096 1.08 17.6396C1.89 18.5396 2.97 18.4496 3.42 18.5396C5.13 18.7196 10.8 18.7196 10.8 18.7196C10.8 18.7196 15.3 18.7196 18.36 18.4496C18.81 18.3596 19.71 18.3596 20.52 17.5496C21.15 16.9196 21.42 15.3896 21.42 15.3896C21.42 15.3896 21.6 13.6796 21.6 11.8796V10.2596C21.6 8.54961 21.42 6.83961 21.42 6.83961ZM8.55 13.9496V7.91961L14.4 10.9796L8.55 13.9496Z" fill="white"/>
</svg>
